<svg width="6110" height="1613" viewBox="0 0 6110 1613" fill="none" xmlns="http://www.w3.org/2000/svg">
<circle cx="725" cy="862" r="725" fill="#475BB2"/>
<path d="M724.627 538.883C586.695 538.883 461.898 644.631 461.898 808.18C461.898 912.614 542.359 1035.44 702.952 1176.99C715.432 1187.82 734.151 1187.82 746.631 1176.99C906.895 1035.44 987.356 912.614 987.356 808.18C987.356 644.631 862.56 538.883 724.627 538.883ZM724.627 867.294C688.502 867.294 658.945 837.737 658.945 801.612C658.945 765.486 688.502 735.929 724.627 735.929C760.752 735.929 790.309 765.486 790.309 801.612C790.309 837.737 760.752 867.294 724.627 867.294Z" fill="white"/>
<path d="M1840.42 862V320.839H1913.55L1945.12 425.531V862H1840.42ZM2214.54 862L1893.54 446.315L1913.55 320.839L2234.56 736.525L2214.54 862ZM2214.54 862L2184.52 760.388V320.839H2289.98V862H2214.54ZM2566.77 869.698C2527.76 869.698 2493.12 861.487 2462.85 845.065C2432.57 828.129 2408.45 805.036 2390.49 775.784C2373.04 746.532 2364.31 713.174 2364.31 675.711C2364.31 638.762 2372.78 605.917 2389.72 577.179C2407.16 547.927 2430.77 524.833 2460.54 507.898C2490.3 490.449 2523.4 481.725 2559.84 481.725C2595.76 481.725 2627.32 489.936 2654.52 506.358C2682.24 522.267 2703.79 544.334 2719.19 572.56C2735.09 600.272 2743.05 631.834 2743.05 667.244C2743.05 673.915 2742.54 680.843 2741.51 688.028C2741 694.7 2739.71 702.397 2737.66 711.122L2425.13 711.891V636.452L2690.7 635.683L2649.9 667.244C2648.88 645.177 2644.77 626.702 2637.59 611.819C2630.92 596.937 2620.91 585.646 2607.57 577.948C2594.74 569.737 2578.83 565.632 2559.84 565.632C2539.82 565.632 2522.38 570.251 2507.49 579.488C2492.61 588.212 2481.06 600.785 2472.85 617.208C2465.16 633.117 2461.31 652.105 2461.31 674.172C2461.31 696.752 2465.41 716.51 2473.62 733.446C2482.35 749.868 2494.66 762.697 2510.57 771.935C2526.48 780.659 2544.96 785.021 2566 785.021C2584.99 785.021 2602.18 781.942 2617.57 775.784C2632.97 769.112 2646.31 759.362 2657.6 746.532L2716.88 805.806C2698.91 826.846 2676.85 842.755 2650.67 853.532C2625.01 864.309 2597.05 869.698 2566.77 869.698ZM2960.91 869.698C2927.04 869.698 2896.5 861.23 2869.31 844.295C2842.11 827.36 2820.81 804.266 2805.41 775.014C2790.02 745.762 2782.32 712.918 2782.32 676.481C2782.32 639.531 2790.02 606.431 2805.41 577.179C2820.81 547.927 2842.11 524.833 2869.31 507.898C2896.5 490.962 2927.04 482.495 2960.91 482.495C2987.6 482.495 3011.46 487.883 3032.5 498.66C3053.54 509.437 3070.22 524.577 3082.54 544.078C3095.37 563.066 3102.29 584.62 3103.32 608.74V742.683C3102.29 767.316 3095.37 789.127 3082.54 808.115C3070.22 827.103 3053.54 842.242 3032.5 853.532C3011.46 864.309 2987.6 869.698 2960.91 869.698ZM2979.39 776.554C3007.61 776.554 3030.45 767.316 3047.9 748.841C3065.34 729.853 3074.07 705.477 3074.07 675.711C3074.07 656.21 3069.96 639.018 3061.75 624.136C3054.05 608.74 3043.02 596.937 3028.65 588.725C3014.8 580.001 2998.37 575.639 2979.39 575.639C2960.91 575.639 2944.49 580.001 2930.12 588.725C2916.26 596.937 2905.23 608.74 2897.02 624.136C2889.32 639.018 2885.47 656.21 2885.47 675.711C2885.47 695.726 2889.32 713.431 2897.02 728.827C2905.23 743.709 2916.26 755.513 2930.12 764.237C2944.49 772.448 2960.91 776.554 2979.39 776.554ZM3068.68 862V761.928L3084.85 671.093L3068.68 581.797V490.193H3168.75V862H3068.68ZM3257.96 862V490.193H3358.81V862H3257.96ZM3358.81 656.467L3319.55 630.294C3324.17 584.62 3337.51 548.697 3359.58 522.524C3381.64 495.838 3413.46 482.495 3455.03 482.495C3472.99 482.495 3489.16 485.574 3503.53 491.732C3517.9 497.377 3530.98 506.871 3542.79 520.214L3479.66 592.574C3474.02 586.416 3467.09 581.797 3458.88 578.718C3451.18 575.639 3442.2 574.1 3431.94 574.1C3410.38 574.1 3392.68 581.028 3378.82 594.884C3365.48 608.227 3358.81 628.754 3358.81 656.467ZM3824.46 862V768.856H3962.25C3997.14 768.856 4027.68 761.671 4053.85 747.302C4080.02 732.419 4100.3 711.635 4114.67 684.949C4129.55 658.263 4136.99 626.702 4136.99 590.265C4136.99 554.855 4129.55 524.063 4114.67 497.891C4099.78 471.205 4079.25 450.677 4053.08 436.308C4026.91 421.425 3996.63 413.984 3962.25 413.984H3822.15V320.839H3963.79C4003.82 320.839 4040.77 327.511 4074.64 340.854C4109.02 354.197 4138.79 373.185 4163.93 397.818C4189.59 421.938 4209.35 450.42 4223.21 483.265C4237.57 516.109 4244.76 552.032 4244.76 591.035C4244.76 630.037 4237.57 666.217 4223.21 699.575C4209.35 732.419 4189.85 761.158 4164.7 785.791C4139.55 809.911 4109.79 828.643 4075.41 841.986C4041.54 855.329 4004.84 862 3965.33 862H3824.46ZM3752.87 862V320.839H3857.56V862H3752.87ZM4317.17 862V490.193H4418.02V862H4317.17ZM4418.02 656.467L4378.76 630.294C4383.38 584.62 4396.72 548.697 4418.79 522.524C4440.85 495.838 4472.67 482.495 4514.24 482.495C4532.2 482.495 4548.37 485.574 4562.74 491.732C4577.11 497.377 4590.19 506.871 4601.99 520.214L4538.87 592.574C4533.23 586.416 4526.3 581.797 4518.09 578.718C4510.39 575.639 4501.41 574.1 4491.15 574.1C4469.59 574.1 4451.89 581.028 4438.03 594.884C4424.69 608.227 4418.02 628.754 4418.02 656.467ZM4660.09 869.698C4641.61 869.698 4626.48 863.54 4614.67 851.223C4602.87 838.906 4596.97 823.767 4596.97 805.806C4596.97 787.844 4602.87 772.705 4614.67 760.388C4626.48 748.071 4641.61 741.913 4660.09 741.913C4678.05 741.913 4692.93 748.071 4704.74 760.388C4716.54 772.705 4722.44 787.844 4722.44 805.806C4722.44 823.767 4716.54 838.906 4704.74 851.223C4692.93 863.54 4678.05 869.698 4660.09 869.698Z" fill="#013E70"/>
<path d="M1842.62 1365V1327.81H1903.93C1914.87 1327.81 1923.36 1324.46 1929.39 1317.76C1935.64 1311.06 1938.77 1303.14 1938.77 1293.98C1938.77 1287.73 1937.43 1282.03 1934.75 1276.89C1932.07 1271.76 1928.05 1267.74 1922.69 1264.83C1917.55 1261.71 1911.3 1260.14 1903.93 1260.14H1842.62V1223.29H1898.9C1908.28 1223.29 1915.76 1220.95 1921.35 1216.26C1927.15 1211.57 1930.06 1204.53 1930.06 1195.15C1930.06 1185.55 1927.15 1178.4 1921.35 1173.71C1915.76 1169.02 1908.28 1166.68 1898.9 1166.68H1842.62V1129.49H1904.26C1919.89 1129.49 1932.96 1132.4 1943.46 1138.2C1954.18 1143.79 1962.22 1151.27 1967.58 1160.65C1972.94 1169.81 1975.62 1179.86 1975.62 1190.8C1975.62 1204.2 1971.48 1215.81 1963.22 1225.64C1955.18 1235.24 1943.34 1242.39 1927.71 1247.08L1929.72 1232.34C1947.14 1237.25 1960.54 1245.4 1969.92 1256.79C1979.52 1267.96 1984.33 1281.47 1984.33 1297.33C1984.33 1309.84 1981.2 1321.23 1974.95 1331.5C1968.92 1341.55 1959.98 1349.7 1948.15 1355.95C1936.53 1361.98 1922.35 1365 1905.6 1365H1842.62ZM1809.12 1365V1129.49H1854.35V1365H1809.12ZM2091.81 1368.35C2075.51 1368.35 2060.77 1364.66 2047.59 1357.29C2034.64 1349.7 2024.25 1339.54 2016.44 1326.81C2008.84 1313.86 2005.05 1299.45 2005.05 1283.59C2005.05 1267.74 2008.84 1253.56 2016.44 1241.05C2024.03 1228.32 2034.42 1218.27 2047.59 1210.9C2060.77 1203.31 2075.4 1199.51 2091.48 1199.51C2108 1199.51 2122.74 1203.31 2135.7 1210.9C2148.87 1218.27 2159.26 1228.32 2166.85 1241.05C2174.45 1253.56 2178.24 1267.74 2178.24 1283.59C2178.24 1299.45 2174.45 1313.86 2166.85 1326.81C2159.26 1339.54 2148.87 1349.7 2135.7 1357.29C2122.74 1364.66 2108.12 1368.35 2091.81 1368.35ZM2091.48 1327.48C2099.74 1327.48 2107 1325.69 2113.25 1322.12C2119.73 1318.32 2124.64 1313.19 2127.99 1306.71C2131.57 1300.01 2133.35 1292.42 2133.35 1283.93C2133.35 1275.44 2131.57 1267.96 2127.99 1261.48C2124.42 1255.01 2119.51 1249.98 2113.25 1246.41C2107 1242.61 2099.74 1240.71 2091.48 1240.71C2083.44 1240.71 2076.29 1242.61 2070.04 1246.41C2063.78 1249.98 2058.87 1255.01 2055.3 1261.48C2051.72 1267.96 2049.94 1275.44 2049.94 1283.93C2049.94 1292.42 2051.72 1300.01 2055.3 1306.71C2058.87 1313.19 2063.78 1318.32 2070.04 1322.12C2076.29 1325.69 2083.44 1327.48 2091.48 1327.48ZM2282.54 1368.35C2266.24 1368.35 2251.5 1364.66 2238.32 1357.29C2225.37 1349.7 2214.98 1339.54 2207.17 1326.81C2199.57 1313.86 2195.78 1299.45 2195.78 1283.59C2195.78 1267.74 2199.57 1253.56 2207.17 1241.05C2214.76 1228.32 2225.14 1218.27 2238.32 1210.9C2251.5 1203.31 2266.13 1199.51 2282.21 1199.51C2298.73 1199.51 2313.47 1203.31 2326.43 1210.9C2339.6 1218.27 2349.99 1228.32 2357.58 1241.05C2365.17 1253.56 2368.97 1267.74 2368.97 1283.59C2368.97 1299.45 2365.17 1313.86 2357.58 1326.81C2349.99 1339.54 2339.6 1349.7 2326.43 1357.29C2313.47 1364.66 2298.84 1368.35 2282.54 1368.35ZM2282.21 1327.48C2290.47 1327.48 2297.73 1325.69 2303.98 1322.12C2310.46 1318.32 2315.37 1313.19 2318.72 1306.71C2322.29 1300.01 2324.08 1292.42 2324.08 1283.93C2324.08 1275.44 2322.29 1267.96 2318.72 1261.48C2315.15 1255.01 2310.23 1249.98 2303.98 1246.41C2297.73 1242.61 2290.47 1240.71 2282.21 1240.71C2274.17 1240.71 2267.02 1242.61 2260.77 1246.41C2254.51 1249.98 2249.6 1255.01 2246.03 1261.48C2242.45 1267.96 2240.67 1275.44 2240.67 1283.93C2240.67 1292.42 2242.45 1300.01 2246.03 1306.71C2249.6 1313.19 2254.51 1318.32 2260.77 1322.12C2267.02 1325.69 2274.17 1327.48 2282.21 1327.48ZM2500.4 1365L2437.76 1281.58L2500.07 1203.19H2550.65L2477.62 1291.63L2479.3 1270.19L2554 1365H2500.4ZM2397.22 1365V1122.79H2441.11V1365H2397.22ZM2773.3 1274.21L2682.18 1129.49H2734.78L2805.46 1245.4H2775.31L2846 1129.49H2897.92L2805.8 1274.21H2773.3ZM2767.27 1365V1249.76H2813.17V1365H2767.27ZM2950.58 1368.35C2934.27 1368.35 2919.53 1364.66 2906.36 1357.29C2893.4 1349.7 2883.02 1339.54 2875.2 1326.81C2867.61 1313.86 2863.81 1299.45 2863.81 1283.59C2863.81 1267.74 2867.61 1253.56 2875.2 1241.05C2882.8 1228.32 2893.18 1218.27 2906.36 1210.9C2919.53 1203.31 2934.16 1199.51 2950.24 1199.51C2966.77 1199.51 2981.51 1203.31 2994.46 1210.9C3007.64 1218.27 3018.02 1228.32 3025.62 1241.05C3033.21 1253.56 3037.01 1267.74 3037.01 1283.59C3037.01 1299.45 3033.21 1313.86 3025.62 1326.81C3018.02 1339.54 3007.64 1349.7 2994.46 1357.29C2981.51 1364.66 2966.88 1368.35 2950.58 1368.35ZM2950.24 1327.48C2958.51 1327.48 2965.76 1325.69 2972.02 1322.12C2978.49 1318.32 2983.41 1313.19 2986.76 1306.71C2990.33 1300.01 2992.12 1292.42 2992.12 1283.93C2992.12 1275.44 2990.33 1267.96 2986.76 1261.48C2983.18 1255.01 2978.27 1249.98 2972.02 1246.41C2965.76 1242.61 2958.51 1240.71 2950.24 1240.71C2942.2 1240.71 2935.06 1242.61 2928.8 1246.41C2922.55 1249.98 2917.64 1255.01 2914.06 1261.48C2910.49 1267.96 2908.7 1275.44 2908.7 1283.93C2908.7 1292.42 2910.49 1300.01 2914.06 1306.71C2917.64 1313.19 2922.55 1318.32 2928.8 1322.12C2935.06 1325.69 2942.2 1327.48 2950.24 1327.48ZM3134.27 1368.35C3119.98 1368.35 3107.25 1365.34 3096.08 1359.3C3085.14 1353.27 3076.54 1344.9 3070.29 1334.18C3064.03 1323.46 3060.91 1311.06 3060.91 1296.99V1203.19H3105.13V1295.99C3105.13 1302.69 3106.24 1308.5 3108.48 1313.41C3110.71 1318.1 3114.06 1321.67 3118.53 1324.13C3122.99 1326.59 3128.24 1327.81 3134.27 1327.81C3143.43 1327.81 3150.57 1325.02 3155.71 1319.44C3160.85 1313.86 3163.42 1306.04 3163.42 1295.99V1203.19H3207.3V1296.99C3207.3 1311.29 3204.17 1323.79 3197.92 1334.51C3191.89 1345.23 3183.29 1353.61 3172.13 1359.64C3161.18 1365.45 3148.56 1368.35 3134.27 1368.35ZM3242.25 1365V1203.19H3286.13V1365H3242.25ZM3286.13 1275.55L3269.05 1264.16C3271.06 1244.29 3276.86 1228.65 3286.47 1217.26C3296.07 1205.65 3309.92 1199.84 3328.01 1199.84C3335.82 1199.84 3342.86 1201.18 3349.11 1203.86C3355.37 1206.32 3361.06 1210.45 3366.2 1216.26L3338.73 1247.75C3336.27 1245.07 3333.26 1243.06 3329.68 1241.72C3326.33 1240.38 3322.42 1239.71 3317.96 1239.71C3308.58 1239.71 3300.87 1242.72 3294.84 1248.75C3289.04 1254.56 3286.13 1263.49 3286.13 1275.55ZM3430.71 1365L3525.52 1129.49H3562.7L3657.17 1365H3608.6L3535.57 1171.7H3552.32L3478.28 1365H3430.71ZM3480.96 1321.11V1282.92H3607.59V1321.11H3480.96ZM3772.7 1368.35C3761.08 1368.35 3750.59 1366.01 3741.21 1361.31C3731.83 1356.4 3724.34 1349.81 3718.76 1341.55C3713.18 1333.29 3710.16 1323.79 3709.72 1313.07V1255.79C3710.16 1245.07 3713.18 1235.58 3718.76 1227.31C3724.57 1218.83 3732.05 1212.13 3741.21 1207.21C3750.59 1202.3 3761.08 1199.84 3772.7 1199.84C3787.66 1199.84 3801.06 1203.53 3812.9 1210.9C3824.73 1218.27 3834 1228.32 3840.7 1241.05C3847.62 1253.78 3851.09 1268.18 3851.09 1284.26C3851.09 1300.12 3847.62 1314.41 3840.7 1327.14C3834 1339.87 3824.73 1349.92 3812.9 1357.29C3801.06 1364.66 3787.66 1368.35 3772.7 1368.35ZM3682.92 1432.67V1203.19H3726.8V1245.74L3719.43 1284.93L3726.47 1324.13V1432.67H3682.92ZM3764.99 1327.81C3773.03 1327.81 3780.18 1326.03 3786.43 1322.45C3792.68 1318.66 3797.49 1313.52 3800.84 1307.04C3804.41 1300.34 3806.2 1292.64 3806.2 1283.93C3806.2 1275.44 3804.41 1267.96 3800.84 1261.48C3797.49 1254.78 3792.68 1249.65 3786.43 1246.07C3780.18 1242.28 3773.03 1240.38 3764.99 1240.38C3757.17 1240.38 3750.14 1242.28 3743.89 1246.07C3737.63 1249.65 3732.72 1254.78 3729.15 1261.48C3725.8 1267.96 3724.12 1275.44 3724.12 1283.93C3724.12 1292.64 3725.8 1300.34 3729.15 1307.04C3732.72 1313.52 3737.52 1318.66 3743.55 1322.45C3749.8 1326.03 3756.95 1327.81 3764.99 1327.81ZM3969.64 1368.35C3958.03 1368.35 3947.53 1366.01 3938.15 1361.31C3928.77 1356.4 3921.29 1349.81 3915.7 1341.55C3910.12 1333.29 3907.11 1323.79 3906.66 1313.07V1255.79C3907.11 1245.07 3910.12 1235.58 3915.7 1227.31C3921.51 1218.83 3928.99 1212.13 3938.15 1207.21C3947.53 1202.3 3958.03 1199.84 3969.64 1199.84C3984.6 1199.84 3998 1203.53 4009.84 1210.9C4021.68 1218.27 4030.94 1228.32 4037.64 1241.05C4044.57 1253.78 4048.03 1268.18 4048.03 1284.26C4048.03 1300.12 4044.57 1314.41 4037.64 1327.14C4030.94 1339.87 4021.68 1349.92 4009.84 1357.29C3998 1364.66 3984.6 1368.35 3969.64 1368.35ZM3879.86 1432.67V1203.19H3923.74V1245.74L3916.37 1284.93L3923.41 1324.13V1432.67H3879.86ZM3961.93 1327.81C3969.97 1327.81 3977.12 1326.03 3983.37 1322.45C3989.63 1318.66 3994.43 1313.52 3997.78 1307.04C4001.35 1300.34 4003.14 1292.64 4003.14 1283.93C4003.14 1275.44 4001.35 1267.96 3997.78 1261.48C3994.43 1254.78 3989.63 1249.65 3983.37 1246.07C3977.12 1242.28 3969.97 1240.38 3961.93 1240.38C3954.12 1240.38 3947.08 1242.28 3940.83 1246.07C3934.58 1249.65 3929.66 1254.78 3926.09 1261.48C3922.74 1267.96 3921.06 1275.44 3921.06 1283.93C3921.06 1292.64 3922.74 1300.34 3926.09 1307.04C3929.66 1313.52 3934.46 1318.66 3940.49 1322.45C3946.75 1326.03 3953.89 1327.81 3961.93 1327.81ZM4152.85 1368.35C4136.54 1368.35 4121.8 1364.66 4108.63 1357.29C4095.67 1349.7 4085.29 1339.54 4077.47 1326.81C4069.88 1313.86 4066.08 1299.45 4066.08 1283.59C4066.08 1267.74 4069.88 1253.56 4077.47 1241.05C4085.07 1228.32 4095.45 1218.27 4108.63 1210.9C4121.8 1203.31 4136.43 1199.51 4152.51 1199.51C4169.04 1199.51 4183.78 1203.31 4196.73 1210.9C4209.91 1218.27 4220.29 1228.32 4227.89 1241.05C4235.48 1253.56 4239.28 1267.74 4239.28 1283.59C4239.28 1299.45 4235.48 1313.86 4227.89 1326.81C4220.29 1339.54 4209.91 1349.7 4196.73 1357.29C4183.78 1364.66 4169.15 1368.35 4152.85 1368.35ZM4152.51 1327.48C4160.78 1327.48 4168.03 1325.69 4174.29 1322.12C4180.76 1318.32 4185.68 1313.19 4189.03 1306.71C4192.6 1300.01 4194.39 1292.42 4194.39 1283.93C4194.39 1275.44 4192.6 1267.96 4189.03 1261.48C4185.45 1255.01 4180.54 1249.98 4174.29 1246.41C4168.03 1242.61 4160.78 1240.71 4152.51 1240.71C4144.47 1240.71 4137.33 1242.61 4131.07 1246.41C4124.82 1249.98 4119.91 1255.01 4116.33 1261.48C4112.76 1267.96 4110.97 1275.44 4110.97 1283.93C4110.97 1292.42 4112.76 1300.01 4116.33 1306.71C4119.91 1313.19 4124.82 1318.32 4131.07 1322.12C4137.33 1325.69 4144.47 1327.48 4152.51 1327.48ZM4267.53 1365V1203.19H4311.75V1365H4267.53ZM4289.64 1177.06C4282.49 1177.06 4276.58 1174.72 4271.89 1170.03C4267.2 1165.12 4264.85 1159.09 4264.85 1151.94C4264.85 1145.02 4267.2 1139.1 4271.89 1134.18C4276.58 1129.27 4282.49 1126.81 4289.64 1126.81C4297.01 1126.81 4302.93 1129.27 4307.4 1134.18C4312.09 1139.1 4314.43 1145.02 4314.43 1151.94C4314.43 1159.09 4312.09 1165.12 4307.4 1170.03C4302.93 1174.72 4297.01 1177.06 4289.64 1177.06ZM4459.5 1365V1272.2C4459.5 1262.6 4456.49 1254.78 4450.46 1248.75C4444.43 1242.72 4436.61 1239.71 4427.01 1239.71C4420.75 1239.71 4415.17 1241.05 4410.26 1243.73C4405.34 1246.41 4401.43 1250.21 4398.53 1255.12C4395.85 1260.03 4394.51 1265.73 4394.51 1272.2L4377.43 1263.49C4377.43 1250.76 4380.11 1239.71 4385.47 1230.33C4391.05 1220.73 4398.64 1213.24 4408.25 1207.88C4418.07 1202.52 4429.13 1199.84 4441.41 1199.84C4453.25 1199.84 4463.86 1202.86 4473.24 1208.89C4482.62 1214.7 4489.99 1222.4 4495.35 1232C4500.71 1241.38 4503.39 1251.55 4503.39 1262.49V1365H4459.5ZM4350.63 1365V1203.19H4394.51V1365H4350.63ZM4560.56 1365V1135.86H4604.44V1365H4560.56ZM4522.7 1241.72V1203.19H4642.3V1241.72H4522.7ZM4666.98 1365V1203.19H4710.86V1365H4666.98ZM4772.5 1365V1269.52C4772.5 1260.14 4769.49 1252.89 4763.46 1247.75C4757.65 1242.39 4750.39 1239.71 4741.68 1239.71C4735.88 1239.71 4730.63 1240.94 4725.94 1243.39C4721.25 1245.63 4717.56 1248.98 4714.88 1253.44C4712.2 1257.91 4710.86 1263.27 4710.86 1269.52L4693.78 1261.15C4693.78 1248.64 4696.46 1237.81 4701.82 1228.65C4707.4 1219.5 4714.88 1212.46 4724.26 1207.55C4733.64 1202.41 4744.25 1199.84 4756.09 1199.84C4767.26 1199.84 4777.42 1202.41 4786.57 1207.55C4795.73 1212.46 4802.99 1219.5 4808.35 1228.65C4813.71 1237.59 4816.39 1248.42 4816.39 1261.15V1365H4772.5ZM4878.03 1365V1269.52C4878.03 1260.14 4875.01 1252.89 4868.98 1247.75C4863.18 1242.39 4855.92 1239.71 4847.21 1239.71C4841.63 1239.71 4836.38 1240.94 4831.46 1243.39C4826.77 1245.63 4823.09 1248.98 4820.41 1253.44C4817.73 1257.91 4816.39 1263.27 4816.39 1269.52L4791.26 1263.49C4792.16 1250.54 4795.62 1239.37 4801.65 1229.99C4807.68 1220.39 4815.61 1213.02 4825.43 1207.88C4835.26 1202.52 4846.2 1199.84 4858.26 1199.84C4870.32 1199.84 4881.16 1202.41 4890.76 1207.55C4900.36 1212.46 4907.96 1219.61 4913.54 1228.99C4919.12 1238.37 4921.91 1249.54 4921.91 1262.49V1365H4878.03ZM5034.87 1368.35C5017.9 1368.35 5002.82 1364.78 4989.65 1357.63C4976.47 1350.26 4965.97 1340.21 4958.16 1327.48C4950.56 1314.75 4946.77 1300.23 4946.77 1283.93C4946.77 1267.85 4950.45 1253.56 4957.82 1241.05C4965.41 1228.32 4975.69 1218.27 4988.64 1210.9C5001.59 1203.31 5016 1199.51 5031.86 1199.51C5047.49 1199.51 5061.22 1203.08 5073.06 1210.23C5085.12 1217.15 5094.5 1226.76 5101.2 1239.04C5108.12 1251.1 5111.59 1264.83 5111.59 1280.24C5111.59 1283.15 5111.36 1286.16 5110.92 1289.29C5110.69 1292.19 5110.13 1295.54 5109.24 1299.34L4973.23 1299.67V1266.84L5088.81 1266.51L5071.05 1280.24C5070.6 1270.64 5068.82 1262.6 5065.69 1256.12C5062.79 1249.65 5058.43 1244.73 5052.63 1241.38C5047.04 1237.81 5040.12 1236.02 5031.86 1236.02C5023.15 1236.02 5015.55 1238.03 5009.08 1242.05C5002.6 1245.85 4997.57 1251.32 4994 1258.47C4990.65 1265.39 4988.98 1273.66 4988.98 1283.26C4988.98 1293.09 4990.76 1301.68 4994.34 1309.05C4998.13 1316.2 5003.49 1321.78 5010.42 1325.8C5017.34 1329.6 5025.38 1331.5 5034.54 1331.5C5042.8 1331.5 5050.28 1330.16 5056.98 1327.48C5063.68 1324.58 5069.49 1320.33 5074.4 1314.75L5100.2 1340.54C5092.38 1349.7 5082.78 1356.62 5071.39 1361.31C5060.22 1366.01 5048.05 1368.35 5034.87 1368.35ZM5247.6 1365V1272.2C5247.6 1262.6 5244.59 1254.78 5238.56 1248.75C5232.53 1242.72 5224.71 1239.71 5215.11 1239.71C5208.85 1239.71 5203.27 1241.05 5198.36 1243.73C5193.44 1246.41 5189.54 1250.21 5186.63 1255.12C5183.95 1260.03 5182.61 1265.73 5182.61 1272.2L5165.53 1263.49C5165.53 1250.76 5168.21 1239.71 5173.57 1230.33C5179.15 1220.73 5186.74 1213.24 5196.35 1207.88C5206.17 1202.52 5217.23 1199.84 5229.51 1199.84C5241.35 1199.84 5251.96 1202.86 5261.34 1208.89C5270.72 1214.7 5278.09 1222.4 5283.45 1232C5288.81 1241.38 5291.49 1251.55 5291.49 1262.49V1365H5247.6ZM5138.73 1365V1203.19H5182.61V1365H5138.73ZM5348.66 1365V1135.86H5392.54V1365H5348.66ZM5310.8 1241.72V1203.19H5430.4V1241.72H5310.8Z" fill="#00BF29"/>
</svg>
