<svg width="1450" height="1450" viewBox="0 0 1450 1450" fill="none" xmlns="http://www.w3.org/2000/svg">
<circle cx="725" cy="725" r="725" fill="#475BB2"/>
<path d="M724.627 401.883C586.695 401.883 461.898 507.631 461.898 671.18C461.898 775.614 542.359 898.44 702.952 1039.99C715.432 1050.82 734.151 1050.82 746.631 1039.99C906.895 898.44 987.356 775.614 987.356 671.18C987.356 507.631 862.56 401.883 724.627 401.883ZM724.627 730.294C688.502 730.294 658.945 700.737 658.945 664.612C658.945 628.486 688.502 598.929 724.627 598.929C760.752 598.929 790.309 628.486 790.309 664.612C790.309 700.737 760.752 730.294 724.627 730.294Z" fill="white"/>
</svg>
